<svg width="66" height="88" viewBox="0 0 66 88" fill="none" xmlns="http://www.w3.org/2000/svg">
<path d="M2.40625 16.4643C2.40625 7.37132 9.77759 0 18.8707 0H47.1214C56.2145 0 63.5859 7.37132 63.5859 16.4643C63.5859 22.2221 60.6303 27.2896 56.1535 30.2323C60.6303 33.1751 63.5859 38.2425 63.5859 44.0003C63.5859 53.0934 56.2145 60.4648 47.1214 60.4648H46.7639C42.5011 60.4648 38.6165 58.8447 35.6926 56.1866V71.3568C35.6926 80.571 28.1285 88 18.9594 88C9.88902 88 2.40625 80.6511 2.40625 71.5356C2.40625 65.7781 5.36155 60.7109 9.83799 57.768C5.36155 54.8252 2.40625 49.7578 2.40625 44.0003C2.40625 38.2425 5.36181 33.1751 9.83856 30.2323C5.36181 27.2896 2.40625 22.2221 2.40625 16.4643ZM30.2995 32.929H18.8707C12.7561 32.929 7.79931 37.8859 7.79931 44.0003C7.79931 50.0913 12.7179 55.0333 18.7999 55.0715C18.8234 55.0713 18.847 55.0713 18.8707 55.0713H30.2995V32.929ZM35.6926 44.0003C35.6926 50.1148 40.6493 55.0717 46.7639 55.0717H47.1214C53.2361 55.0717 58.1928 50.1148 58.1928 44.0003C58.1928 37.8859 53.2361 32.929 47.1214 32.929H46.7639C40.6493 32.929 35.6926 37.8859 35.6926 44.0003ZM18.8707 60.4648C18.847 60.4648 18.8234 60.4646 18.7999 60.4646C12.7179 60.5026 7.79931 65.4447 7.79931 71.5356C7.79931 77.6277 12.8223 82.6069 18.9594 82.6069C25.1953 82.6069 30.2995 77.5476 30.2995 71.3568V60.4648H18.8707ZM18.8707 5.39306C12.7561 5.39306 7.79931 10.3498 7.79931 16.4643C7.79931 22.5789 12.7561 27.5356 18.8707 27.5356H30.2995V5.39306H18.8707ZM35.6926 27.5356H47.1214C53.2361 27.5356 58.1928 22.5789 58.1928 16.4643C58.1928 10.3498 53.2361 5.39306 47.1214 5.39306H35.6926V27.5356Z" fill="white"/>
</svg>
