<svg width="88" height="89" viewBox="0 0 88 89" fill="none" xmlns="http://www.w3.org/2000/svg">
<path d="M78.5714 0.516235H9.42857C4.22321 0.516235 0 4.73743 0 9.94029V79.0501C0 84.2529 4.22321 88.4741 9.42857 88.4741H78.5714C83.7768 88.4741 88 84.2529 88 79.0501V9.94029C88 4.73743 83.7768 0.516235 78.5714 0.516235ZM47.8893 69.1155C47.8893 77.6757 42.8607 81.5828 35.5339 81.5828C28.9143 81.5828 25.0839 78.1666 23.1196 74.0239L29.8571 69.9598C31.1536 72.2569 32.3321 74.2006 35.1804 74.2006C37.8911 74.2006 39.6196 73.1404 39.6196 68.9977V40.9023H47.8893V69.1155ZM67.4536 81.5828C59.7732 81.5828 54.8036 77.931 52.3875 73.1404L59.125 69.253C60.8929 72.1391 63.2107 74.2791 67.2768 74.2791C70.6946 74.2791 72.8946 72.571 72.8946 70.1954C72.8946 67.3682 70.6554 66.3669 66.8643 64.698L64.8018 63.8145C58.8304 61.2818 54.8821 58.0815 54.8821 51.3473C54.8821 45.1431 59.6161 40.4311 66.9821 40.4311C72.2464 40.4311 76.0179 42.257 78.7286 47.0475L72.2857 51.1706C70.8714 48.6378 69.3393 47.6365 66.9625 47.6365C64.5464 47.6365 63.0143 49.1679 63.0143 51.1706C63.0143 53.6444 64.5464 54.6457 68.1018 56.1967L70.1643 57.0802C77.1964 60.0841 81.1446 63.1666 81.1446 70.0776C81.1446 77.499 75.2911 81.5828 67.4536 81.5828Z" fill="white"/>
</svg>
