<svg width="88" height="46" viewBox="0 0 88 46" fill="none" xmlns="http://www.w3.org/2000/svg">
<g clip-path="url(#clip0_37:67)">
<path d="M22.7088 45.8239V43.9187H23.1693C26.0225 43.9187 28.8758 43.9278 31.7291 43.9007C32.1715 43.9007 32.623 43.7652 33.0474 43.6027C33.4447 43.4582 33.6433 43.1061 33.6253 42.6637C33.6162 42.3476 33.6253 42.0226 33.6253 41.6524H33.1648C31.2776 41.6524 29.3815 41.6614 27.4943 41.6524C26.4018 41.6433 25.3183 41.5169 24.3341 41.0023C23.9548 40.7946 23.6027 40.5508 23.2776 40.2619C22.8442 39.8736 22.6546 39.3499 22.6546 38.772C22.6636 36.6862 22.6727 34.6005 22.6817 32.5147C22.6907 32.4695 22.6997 32.4334 22.7178 32.3973H25.4808C25.4898 32.5508 25.4988 32.6862 25.4988 32.8307C25.4988 34.6998 25.4988 36.5598 25.4988 38.4199C25.4988 39.4221 25.9323 39.8917 26.9526 39.9097C28.5237 39.9368 30.0858 39.9278 31.6569 39.9278C32.2979 39.9278 32.939 39.9278 33.6253 39.9278V39.377C33.6253 37.1919 33.6343 35.0068 33.6162 32.8217C33.6162 32.4605 33.6975 32.316 34.0858 32.3431C34.7539 32.3792 35.4221 32.3702 36.0812 32.3431C36.3882 32.3341 36.4876 32.4244 36.4876 32.7314C36.4785 35.7833 36.4785 38.8262 36.4785 41.8781C36.4785 42.149 36.4695 42.4199 36.4695 42.6908C36.4876 43.684 36.0271 44.4063 35.2054 44.93C34.5101 45.3725 32.9751 45.8149 32.6049 45.8149L22.7088 45.8239Z" fill="white"/>
<path d="M10.0135 39.675C10.1218 39.4583 10.176 39.3499 10.2302 39.2235C11.6027 36.1445 13.0022 33.0745 14.3386 29.9684C15.0428 28.3341 16.2979 27.7743 18.0225 28.0903C18.3747 28.1535 18.7178 28.2528 19.0519 28.3792C19.7742 28.6321 20.1535 29.1738 20.1625 29.9233C20.1805 33.7969 20.1715 37.6704 20.1715 41.5531C20.1625 41.6072 20.1535 41.6614 20.1444 41.7156H17.3273V30.3386L17.237 30.3115C17.1828 30.4199 17.1196 30.5282 17.0654 30.6456C15.6298 33.842 14.1851 37.0203 12.7765 40.2258C12.2618 41.3905 11.4492 41.9594 10.1851 41.9052C9.90514 41.8962 9.61621 41.9052 9.3363 41.8601C8.39724 41.7337 7.82839 41.1558 7.45819 40.3251C6.64555 38.5011 5.82388 36.6862 5.01124 34.8623C4.37918 33.4537 3.74713 32.0542 3.12411 30.6456C3.07896 30.5192 2.98867 30.4109 2.88031 30.3386V41.7427H0.893857C0.00898095 41.7427 0.00898103 41.7427 0.00898103 40.8488C0.00898103 37.4176 0.0270397 33.9865 -4.83173e-05 30.5553C-0.00907766 28.9481 0.43336 28.4515 1.98641 28.1445C2.48302 28.0452 2.98866 28.0181 3.48528 28.0542C4.5688 28.1355 5.29115 28.7495 5.72456 29.7427C6.78099 32.1987 7.84645 34.6546 8.90289 37.1016C9.25503 37.9323 9.61621 38.754 10.0135 39.675Z" fill="white"/>
<path d="M66.3747 41.2009L69.1196 43.693C68.9661 43.702 68.8668 43.7201 68.7675 43.7201C67.9278 43.7201 67.088 43.7381 66.2483 43.7111C66.0316 43.693 65.833 43.6208 65.6704 43.4853C65.1106 43.0158 64.5688 42.5282 64.0542 42.0226C63.7562 41.7246 63.4402 41.6343 63.0339 41.6524C61.4808 41.7156 59.9278 41.7788 58.3747 41.7968C57.3995 41.8149 56.4244 41.6253 55.5305 41.228C54.3747 40.7133 53.7156 39.8646 53.7156 38.5643C53.7246 36.1445 53.7156 33.7246 53.7246 31.3047C53.7246 30.3747 54.1851 29.6885 54.9436 29.1828C55.684 28.6953 56.5418 28.4244 57.4176 28.3973C59.4944 28.3341 61.5621 28.316 63.6388 28.3251C64.5508 28.3251 65.4628 28.5147 66.3025 28.8758C67.5214 29.4086 68.1264 30.3296 68.1264 31.6569C68.1264 33.8962 68.1264 36.1264 68.1264 38.3567C68.1264 39.5937 67.7381 40.5869 66.5192 41.0925C66.474 41.1016 66.456 41.1377 66.3747 41.2009ZM59.2777 37.7065C60.3251 37.7065 61.2641 37.6975 62.1941 37.7156C62.3928 37.7246 62.5914 37.8059 62.7449 37.9323C63.3138 38.4199 63.8736 38.9255 64.4244 39.4492C64.605 39.6208 64.7494 39.6208 64.93 39.4673C65.3544 39.1242 65.4898 38.6727 65.4898 38.158C65.4898 36.0813 65.4898 34.0135 65.4898 31.9368C65.4898 31.0339 65.1196 30.5372 64.2438 30.3025C63.9549 30.2212 63.6659 30.1851 63.3679 30.1761C61.86 30.167 60.3521 30.149 58.8442 30.1851C58.4289 30.2032 58.0135 30.2844 57.6253 30.4379C57.0203 30.6637 56.7223 31.1422 56.7223 31.7923C56.7133 33.9052 56.7133 36.0181 56.7223 38.1219C56.7314 39.07 57.2822 39.7562 58.2302 39.8375C59.3047 39.9278 60.3973 39.8916 61.4808 39.9007C61.4989 39.9007 61.5079 39.8736 61.5711 39.8014L59.2777 37.7065Z" fill="white"/>
<path d="M64.4606 17.2912C65.7247 20.4876 67.2597 23.4763 69.7066 25.9594C69.6253 25.9142 69.5531 25.8691 69.4809 25.8059C68.4515 24.8668 67.4132 23.9278 66.4109 22.9707C65.6885 22.2754 65.2551 21.3815 64.8308 20.4876C64.7405 20.298 64.6502 20.1174 64.5509 19.9368H64.4425C64.3612 20.3702 64.28 20.8036 64.1987 21.2461C64.1265 21.6433 64.0994 22.0587 63.982 22.4379C63.7201 23.3318 62.8262 23.6479 62.0407 23.1422C61.4448 22.763 61.0655 22.1941 60.7676 21.5801C60.0091 20.0722 59.7201 18.3657 59.9188 16.6953C60.0452 15.5756 60.3432 14.474 60.5689 13.3634C60.587 13.228 60.6321 13.1016 60.7043 12.9842C60.8849 12.7223 60.7946 12.5147 60.605 12.3251C59.8917 11.6298 59.4673 10.7449 59.1152 9.84198C58.7269 8.84875 58.438 7.81038 58.0497 6.81715C57.8511 6.32957 57.6073 5.86004 57.3093 5.42663C56.8849 4.80361 56.3973 4.22573 55.9549 3.62076C55.5125 3.0158 55.1694 2.36568 55.2506 1.5711C55.3409 0.677194 56.0181 -0.0270951 56.912 -7.01722e-06C57.535 0.0180517 58.1581 0.126404 58.754 0.32505C59.7292 0.659135 60.6502 1.11963 61.3996 1.83295C61.7698 2.1851 62.2122 2.16704 62.6457 2.1851C64.3432 2.25733 65.8601 2.79006 67.2958 3.68397C70.447 5.64334 73.0294 8.15349 74.9346 11.3409C75.1965 11.8014 75.4312 12.2709 75.6479 12.7585C76.6141 14.8623 77.5802 16.9661 78.5373 19.07C78.745 19.5576 79.1603 19.9368 79.666 20.0993C81.7698 20.8397 83.5667 22.1038 85.2371 23.5485C85.8421 24.0813 86.9436 25.3995 86.9798 25.4989C85.4177 26.1038 83.7111 25.9865 82.1129 26.6275C82.2935 26.8442 82.438 27.1151 82.6637 27.2867C83.0971 27.6208 83.5396 27.9187 84.0091 28.1986C85.1468 28.8758 87.8105 31.4853 87.9549 32.0632L88.0001 32.2348C87.7202 32 87.5035 31.8104 87.2777 31.6298C86.3116 30.8262 85.219 30.2393 84.0813 29.7066C82.8985 29.1558 81.815 28.4424 81.0023 27.395C80.7495 27.07 80.587 26.6727 80.3703 26.3115C80.2077 26.0497 80.3342 25.9052 80.5599 25.8239C81.508 25.4808 82.4561 25.1287 83.4854 25.0745C84.1445 25.0384 84.8127 25.0023 85.5712 24.9661C85.3906 24.7585 85.2822 24.5598 85.1107 24.4424C83.2326 23.1603 81.4538 21.6795 79.1513 21.1828C78.2935 20.9932 77.7156 20.4786 77.3454 19.693C76.4696 17.8149 75.5125 15.9729 74.736 14.0587C73.8962 11.9819 72.6953 10.0767 71.1784 8.42438C69.3545 6.4018 67.2145 4.81264 64.6863 3.73814C63.7111 3.32279 62.6818 3.35891 61.6705 3.25056C61.2822 3.21444 60.912 3.05191 60.6141 2.79006C59.6118 1.97742 58.4651 1.44469 57.2371 1.09254C56.912 1.00225 56.605 1.03837 56.3793 1.27313C56.1265 1.53498 56.1265 1.86907 56.28 2.17607C56.4786 2.57336 56.6682 2.98871 56.9572 3.31376C58.2574 4.80361 59.0971 6.51918 59.6208 8.41535C59.8466 9.20993 60.2348 9.96839 60.605 10.7178C60.7856 11.0519 61.0204 11.3589 61.3003 11.6208C61.7518 12.0542 61.8782 12.5418 61.6885 13.1287C61.4448 13.8781 61.1468 14.6185 60.9933 15.386C60.587 17.3544 60.7314 19.2867 61.5983 21.1287C61.7788 21.4898 62.0317 21.8059 62.3387 22.0677C62.6005 22.3025 62.736 22.2122 62.7901 21.86C62.8804 21.237 62.9617 20.614 63.0339 19.991C63.1603 18.9436 63.684 18.0858 64.4606 17.2912Z" fill="white"/>
<path d="M51.4131 28.2889C51.7472 28.2889 51.8465 28.3883 51.8285 28.7133C51.8014 29.0474 51.8014 29.3815 51.8285 29.7156C51.8555 30.0677 51.7472 30.1761 51.377 30.1761C48.7675 30.158 46.1671 30.158 43.5576 30.1761C43.1784 30.1851 42.7991 30.2393 42.4289 30.3205C42.0226 30.4018 41.7608 30.6907 41.7427 31.088C41.6976 31.7291 41.7066 32.3702 41.7517 33.0023C41.8149 33.6072 42.3477 34.0135 43.0429 34.0677C43.5215 34.1038 44 34.1219 44.4876 34.1309C45.5982 34.149 46.7088 34.1129 47.8194 34.158C48.903 34.2032 49.9323 34.5192 50.8262 35.1603C51.4402 35.6027 51.7653 36.1806 51.7382 36.9571C51.7111 37.6795 51.7291 38.4108 51.675 39.1332C51.6298 39.7652 51.2686 40.2348 50.7811 40.605C49.8059 41.3454 48.6682 41.6885 47.4673 41.7066C44.7134 41.7427 41.9594 41.7156 39.2055 41.7246C38.9075 41.7246 38.8172 41.6253 38.8262 41.3363C38.8443 40.9752 38.8443 40.623 38.8262 40.2619C38.8082 39.9368 38.9165 39.8375 39.2416 39.8375C41.7879 39.8465 44.3341 39.8465 46.8714 39.8375C47.2416 39.8375 47.6027 39.7743 47.9549 39.6749C48.5869 39.4763 48.8759 39.0248 48.8849 38.3657C48.8849 38.0677 48.8849 37.7698 48.8849 37.4808C48.8849 36.4515 48.4605 35.9368 47.4222 35.8826C46.0316 35.8104 44.6321 35.8375 43.2416 35.7923C42.1761 35.7562 41.1377 35.5305 40.1987 34.9977C39.3319 34.5011 38.7901 33.8239 38.8804 32.7494C38.9346 32.0361 38.8985 31.3228 38.9797 30.6095C39.0429 30.0497 39.377 29.5982 39.8375 29.2731C40.5599 28.7494 41.3725 28.3973 42.2664 28.3792C43.9097 28.3431 50.0045 28.307 51.4131 28.2889Z" fill="white"/>
<path d="M70.0316 33.5711C70.0316 31.9458 70.0406 30.3115 70.0226 28.6862C70.0226 28.4063 70.0858 28.289 70.3928 28.298C71.088 28.316 71.7743 28.316 72.4695 28.298C72.7765 28.289 72.8668 28.3883 72.8668 28.6953C72.8578 31.7833 72.8939 34.8713 72.8488 37.9503C72.8307 39.3499 73.3815 39.8014 74.754 39.8465C76.5147 39.9007 78.2844 39.8646 80.0542 39.8646C80.8849 39.8646 81.7065 39.8736 82.5372 39.8646C82.7991 39.8646 82.8894 39.9458 82.8803 40.2077C82.8623 40.614 82.8713 41.0203 82.8803 41.4266C82.8894 41.6343 82.8262 41.7427 82.5914 41.7427C80.009 41.7336 77.4266 41.7788 74.8442 41.7156C73.9323 41.6795 73.0384 41.5079 72.1716 41.219C70.6637 40.7404 70.0316 39.7562 70.0316 38.1761V33.5711Z" fill="white"/>
<path d="M63.0971 7.53047L61.9052 5.66139C62.3567 5.39954 62.9436 5.55304 63.2777 6.04063C63.6479 6.57336 63.5757 7.12415 63.0971 7.53047Z" fill="white"/>
</g>
<defs>
<clipPath id="clip0_37:67">
<rect width="88" height="45.8239" fill="white"/>
</clipPath>
</defs>
</svg>
