<svg width="88" height="71" viewBox="0 0 88 71" fill="none" xmlns="http://www.w3.org/2000/svg">
<path d="M44 14.3687C67.5675 14.3687 85.69 24.2962 85.69 35.2C85.69 46.1037 67.5537 56.0312 44 56.0312C20.4325 56.0312 2.31 46.1037 2.31 35.2C2.31 24.2962 20.4463 14.3687 44 14.3687ZM44 12.0587C19.7038 12.0587 0 22.4125 0 35.2C0 47.9875 19.7038 58.3412 44 58.3412C68.2962 58.3412 88 47.9875 88 35.2C88 22.4125 68.2962 12.0587 44 12.0587ZM30.0025 33.3437C28.9163 38.9125 25.08 38.335 20.3638 38.335L22.2475 28.6275C27.4725 28.6275 31.02 28.0637 30.0025 33.3437ZM13.3925 48.1662H18.4388L19.635 42.0062C25.2863 42.0062 28.7925 42.4187 32.0375 39.38C35.6263 36.08 36.5613 30.2087 34.0037 27.2662C32.67 25.7262 30.525 24.97 27.61 24.97H17.8888L13.3925 48.1662ZM38.9263 18.7962H43.945L42.7487 24.9562C47.08 24.9562 51.095 24.64 53.0338 26.4275C55.0688 28.2975 54.0925 30.69 51.8925 41.9787H46.805C48.9225 31.0612 49.3213 30.1537 48.5513 29.3287C47.8088 28.5312 46.1175 28.6962 42.0338 28.6962L39.4487 41.9787H34.43L38.9263 18.7962ZM69.4375 33.3437C68.3375 38.995 64.3913 38.335 59.7988 38.335L61.6825 28.6275C66.935 28.6275 70.455 28.0637 69.4375 33.3437ZM52.8275 48.1662H57.8875L59.0838 42.0062C65.0238 42.0062 68.31 42.35 71.4863 39.38C75.075 36.08 76.01 30.2087 73.4525 27.2662C72.1188 25.7262 69.9738 24.97 67.0588 24.97H57.3375L52.8275 48.1662Z" fill="white"/>
</svg>
