<svg width="88" height="89" viewBox="0 0 88 89" fill="none" xmlns="http://www.w3.org/2000/svg">
<path d="M86.3867 33.5162C84.8742 27.4496 82.0065 22.8752 75.8977 22.8752H68.0212V32.1811C68.0212 39.406 61.8928 45.4922 54.9002 45.4922H33.9223C28.1867 45.4922 23.4333 50.4004 23.4333 56.1528V76.1391C23.4333 81.8326 28.3832 85.1702 33.9223 86.7997C40.5613 88.7433 46.9451 89.0967 54.9002 86.7997C60.1839 85.2683 65.3891 82.186 65.3891 76.1391V68.1485H44.4309V65.4784H75.8977C82.0065 65.4784 84.2653 61.2181 86.3867 54.8374C88.5866 48.2604 88.4884 41.9387 86.3867 33.5162ZM56.2162 73.469C58.3965 73.469 60.1643 75.2556 60.1643 77.4545C60.1643 79.673 58.3965 81.4596 56.2162 81.4596C54.0556 81.4596 52.2681 79.6533 52.2681 77.4545C52.2878 75.2359 54.0556 73.469 56.2162 73.469ZM32.9598 42.8614H53.9377C59.7715 42.8614 64.4267 38.0513 64.4267 32.2008V12.1949C64.4267 6.50137 59.634 2.24105 53.9377 1.27904C46.9058 0.120698 39.265 0.179597 32.9598 1.29867C24.0815 2.8693 22.4709 6.14798 22.4709 12.2145V20.2051H43.4684V22.8752H14.5943C8.48559 22.8752 3.1429 26.5465 1.47331 33.5162C-0.451624 41.5067 -0.530193 46.4935 1.47331 54.8374C2.96612 61.0414 6.52137 65.4784 12.6301 65.4784H19.8388V55.8976C19.8388 48.9672 25.8297 42.8614 32.9598 42.8614ZM31.6438 14.865C29.4635 14.865 27.6957 13.0784 27.6957 10.8795C27.7153 8.66098 29.4635 6.8744 31.6438 6.8744C33.8044 6.8744 35.5919 8.68062 35.5919 10.8795C35.5919 13.0784 33.8241 14.865 31.6438 14.865Z" fill="white"/>
</svg>
