<svg width="96" height="96" viewBox="0 0 96 96" fill="none" xmlns="http://www.w3.org/2000/svg">
<path d="M75.8781 33.9541C74.95 33.6447 74.0219 33.3525 73.0938 33.0775C73.2484 32.4416 73.3859 31.8057 73.5234 31.1697C75.6375 20.926 74.2453 12.6932 69.5531 9.97754C65.0328 7.38223 57.6594 10.0807 50.2 16.5775C49.4609 17.2135 48.7391 17.8838 48.0516 18.5541C47.5875 18.1072 47.1063 17.6604 46.625 17.2307C38.8047 10.2869 30.9672 7.36504 26.275 10.0979C21.7719 12.7104 20.4312 20.4619 22.3219 30.1557C22.5109 31.1182 22.7172 32.0635 22.9578 33.026C21.8578 33.3354 20.775 33.6791 19.7609 34.04C10.5828 37.2197 4 42.2385 4 47.4291C4 52.7916 11.0125 58.1713 20.5516 61.4369C21.325 61.6947 22.0984 61.9525 22.8891 62.176C22.6313 63.2072 22.4078 64.2213 22.2016 65.2697C20.3969 74.8088 21.8062 82.3713 26.3094 84.9666C30.95 87.6479 38.7531 84.8979 46.35 78.2463C46.9516 77.7135 47.5531 77.1635 48.1547 76.5791C48.9109 77.3182 49.7016 78.0229 50.4922 78.7104C57.8484 85.0353 65.1188 87.5963 69.6047 85.001C74.2453 82.3197 75.7578 74.19 73.7984 64.29C73.6438 63.5338 73.4719 62.7604 73.2828 61.9697C73.8328 61.815 74.3656 61.6432 74.8984 61.4713C84.8156 58.1885 92 52.8775 92 47.4291C92 42.2213 85.2281 37.1682 75.8781 33.9541ZM52.6234 19.3619C59.0172 13.7932 64.9813 11.6104 67.6969 13.1744C70.6016 14.8416 71.7188 21.5791 69.8969 30.4307C69.7766 31.015 69.6562 31.5822 69.5016 32.1494C65.6859 31.29 61.8187 30.6713 57.9344 30.3275C55.7 27.1307 53.2594 24.0713 50.6125 21.201C51.2828 20.565 51.9359 19.9635 52.6234 19.3619ZM32.7375 56.3494C33.6141 57.8447 34.5078 59.34 35.4531 60.801C32.7719 60.5088 30.1078 60.0791 27.4781 59.5119C28.2344 57.0369 29.1797 54.476 30.2797 51.8635C31.0703 53.376 31.8781 54.8713 32.7375 56.3494ZM27.5297 35.6728C30.0047 35.1228 32.6344 34.676 35.3672 34.3322C34.4562 35.7588 33.5625 37.2197 32.7203 38.6978C31.8781 40.1588 31.0531 41.6541 30.2797 43.1666C29.1969 40.6057 28.2859 38.0963 27.5297 35.6728ZM32.2391 47.515C33.3734 45.1432 34.6109 42.8228 35.9172 40.5369C37.2234 38.251 38.6328 36.0338 40.1109 33.851C42.6891 33.6619 45.3187 33.5588 48 33.5588C50.6813 33.5588 53.3281 33.6619 55.8891 33.851C57.35 36.0166 58.7422 38.2338 60.0656 40.5025C61.3891 42.7713 62.6266 45.0916 63.7953 47.4463C62.6437 49.8182 61.4062 52.1557 60.0828 54.4588C58.7766 56.7447 57.3844 58.9619 55.9234 61.1619C53.3625 61.351 50.6984 61.4369 48 61.4369C45.3016 61.4369 42.6891 61.351 40.1625 61.1963C38.6672 59.0135 37.2578 56.7791 35.9344 54.4932C34.6109 52.2072 33.3906 49.8869 32.2391 47.515ZM63.2797 56.315C64.1562 54.8025 64.9813 53.2729 65.7891 51.726C66.8891 54.2182 67.8516 56.7447 68.6937 59.34C66.0297 59.9416 63.3312 60.4057 60.6156 60.715C61.5438 59.2713 62.4203 57.7932 63.2797 56.315ZM65.7547 43.1666C64.9469 41.6541 64.1219 40.1416 63.2625 38.6635C62.4203 37.2025 61.5438 35.7588 60.6328 34.3322C63.4 34.676 66.0469 35.14 68.5219 35.7072C67.7313 38.251 66.8031 40.726 65.7547 43.1666ZM48.0344 23.8307C49.8391 25.79 51.5406 27.8525 53.1219 29.9838C49.7187 29.8291 46.2984 29.8291 42.8953 29.9838C44.5797 27.7666 46.3156 25.7041 48.0344 23.8307ZM28.0969 13.2947C30.9844 11.6104 37.3953 14.0166 44.15 19.9979C44.5797 20.376 45.0094 20.7885 45.4562 21.201C42.7922 24.0713 40.3344 27.1307 38.0828 30.3275C34.1984 30.6713 30.3484 31.2729 26.5328 32.115C26.3094 31.2385 26.1203 30.3447 25.9312 29.451C24.3156 21.1322 25.3813 14.8588 28.0969 13.2947ZM23.8859 58.601C23.1641 58.3947 22.4594 58.1713 21.7547 57.9307C18.0938 56.7791 13.9344 54.9572 10.9266 52.5682C9.19062 51.365 8.02187 49.5088 7.69531 47.4291C7.69531 44.2838 13.1266 40.2619 20.9641 37.5291C21.9438 37.1853 22.9406 36.876 23.9375 36.5838C25.1063 40.3135 26.5156 43.9744 28.1484 47.515C26.4984 51.1072 25.0719 54.8197 23.8859 58.601ZM43.9266 75.4447C41.0906 78.04 37.8078 80.1025 34.2328 81.5119C32.325 82.4229 30.125 82.5088 28.1656 81.7354C25.4328 80.1541 24.2984 74.0869 25.8453 65.9229C26.0344 64.9604 26.2406 63.9978 26.4813 63.0525C30.3313 63.8775 34.2156 64.4447 38.1516 64.7369C40.4203 67.951 42.9125 71.0275 45.5766 73.915C45.0266 74.4479 44.4766 74.9635 43.9266 75.4447ZM48.1375 71.2682C46.3844 69.3775 44.6312 67.2807 42.9297 65.0291C44.5797 65.0979 46.2812 65.1322 48 65.1322C49.7703 65.1322 51.5062 65.0978 53.225 65.0119C51.6437 67.1947 49.9422 69.2744 48.1375 71.2682ZM70.6016 76.4244C70.4469 78.5213 69.4156 80.4807 67.7656 81.8041C65.0328 83.3854 59.2062 81.3228 52.9156 75.926C52.1938 75.3072 51.4719 74.6369 50.7328 73.9494C53.3625 71.0447 55.7859 67.9682 57.9859 64.7369C61.9219 64.4103 65.8406 63.8088 69.7078 62.9322C69.8797 63.6369 70.0344 64.3416 70.1719 65.0291C71.0141 68.7416 71.1516 72.6088 70.6016 76.4244ZM73.7297 57.9478C73.2484 58.1025 72.7672 58.2572 72.2688 58.3947C71.0656 54.6479 69.5875 50.9869 67.8859 47.4291C69.5359 43.9229 70.9281 40.3135 72.0969 36.6182C72.9906 36.876 73.85 37.151 74.675 37.426C82.6844 40.176 88.3047 44.2666 88.3047 47.3947C88.3047 50.7635 82.3063 55.1119 73.7297 57.9478ZM48 55.3697C52.3484 55.3697 55.8719 51.8463 55.8719 47.4978C55.8719 43.1494 52.3484 39.626 48 39.626C43.6516 39.626 40.1281 43.1494 40.1281 47.4978C40.1281 51.8463 43.6516 55.3697 48 55.3697Z" fill="white"/>
</svg>
