<svg width="88" height="71" viewBox="0 0 88 71" fill="none" xmlns="http://www.w3.org/2000/svg">
<path d="M41.503 52.1015C41.4617 52.184 41.4205 52.25 41.503 52.1015V52.1015ZM75.7584 40.139C72.9929 40.1381 70.2642 40.7732 67.7834 41.9952C66.9721 40.359 66.1334 38.929 65.9959 37.8565C65.8309 36.6052 65.6521 35.8627 65.8446 34.3777C66.0371 32.8927 66.9034 30.789 66.8896 30.6377C66.8759 30.4865 66.6971 29.7302 64.9234 29.7165C63.1496 29.7027 61.6234 30.0602 61.446 30.5277C61.1327 31.3821 60.889 32.2604 60.7172 33.154C60.401 34.7627 57.1711 40.5102 55.3424 43.5077C54.7374 42.339 54.2286 41.3077 54.1186 40.4827C53.9536 39.2315 53.7749 38.489 53.9674 37.004C54.1599 35.519 55.0261 33.4152 55.0124 33.264C54.9986 33.1127 54.8199 32.3565 53.0475 32.3427C51.2751 32.329 49.7475 32.6865 49.5687 33.154C49.39 33.6215 49.1975 34.7215 48.84 35.7802C48.4825 36.839 44.1801 46.409 43.054 48.8977C42.4765 50.1627 41.9815 51.1802 41.624 51.8677C41.569 51.9777 41.5277 52.0465 41.5002 52.1015C41.5415 52.0327 41.569 51.964 41.569 51.9915C41.2665 52.5827 41.0877 52.9127 41.0877 52.9127V52.9265C40.854 53.3665 40.5928 53.7652 40.469 53.7652C40.3865 53.7652 40.2077 52.6102 40.5102 51.029C41.1565 47.7015 42.6828 42.5315 42.669 42.3527C42.6553 42.2565 42.9577 41.3627 41.6652 40.8815C40.414 40.4277 39.9603 41.184 39.8503 41.184C39.7402 41.184 39.6577 41.459 39.6577 41.459C39.6577 41.459 41.0465 35.629 36.9916 35.629C34.4616 35.629 30.9416 38.4065 29.2119 40.9227C28.1256 41.514 25.7744 42.7927 23.2994 44.154C22.3506 44.6765 21.3744 45.2127 20.4531 45.7215C20.3844 45.6527 20.3294 45.584 20.2606 45.5152C15.3395 40.2627 6.2535 36.5502 6.6385 29.4965C6.776 26.9252 7.66975 20.174 24.1106 11.979C37.5856 5.26898 48.3587 7.11148 50.2136 11.209C52.8811 17.0527 44.4537 27.929 30.4604 29.4965C25.1267 30.0877 22.3231 28.0252 21.6219 27.2552C20.8931 26.444 20.7831 26.4027 20.5081 26.554C20.0544 26.8015 20.3431 27.5165 20.5081 27.9427C20.9206 29.029 22.6394 30.954 25.5667 31.9165C28.138 32.7552 34.3915 33.2227 41.9526 30.294C50.4474 27.0215 57.0597 17.9052 55.121 10.274C53.1465 2.51898 40.2875 -0.0247719 28.1284 4.29273C20.8835 6.86398 13.0487 10.9065 7.41262 16.1727C0.717749 22.4427 -0.353377 27.9015 0.0866234 30.184C1.65275 38.2827 12.815 43.5627 17.2824 47.4677C17.0624 47.5915 16.8561 47.7015 16.6636 47.8115C14.4237 48.9252 5.91387 53.3802 3.784 58.0827C1.37775 63.4177 4.18275 67.2402 6.02387 67.7627C11.77 69.3577 17.6536 66.484 20.8147 61.7677C23.9759 57.0515 23.5922 50.8915 22.1347 48.0865C22.121 48.0452 22.0935 48.0177 22.0797 47.9765C22.6572 47.6327 23.2485 47.289 23.8397 46.9452C24.9796 46.2715 26.0934 45.6527 27.0696 45.1165C26.5196 46.6015 26.1209 48.389 25.9146 50.974C25.6671 53.999 26.9184 57.9177 28.5409 59.4577C29.2559 60.1315 30.1207 60.1452 30.657 60.1452C32.5545 60.1452 33.407 58.5777 34.3544 56.7077C35.5231 54.4252 36.5544 51.7715 36.5544 51.7715C36.5544 51.7715 35.2619 58.949 38.7956 58.949C40.0867 58.949 41.3792 57.2852 41.9581 56.4327V56.4465C41.9581 56.4465 41.9856 56.3915 42.0544 56.2815C42.1919 56.0752 42.2606 55.9515 42.2606 55.9515V55.9102C42.7831 55.0165 43.9244 52.9677 45.6418 49.5852C47.8692 45.2127 49.9991 39.754 49.9991 39.754C50.2049 40.9539 50.4897 42.139 50.8516 43.3015C51.2366 44.6077 52.0479 46.0377 52.6941 47.4265C52.1716 48.1415 51.8554 48.554 51.8554 48.554C51.8564 48.5645 51.8613 48.5743 51.8691 48.5815C51.4566 49.1315 50.9891 49.7227 50.5079 50.3002C48.7492 52.3902 46.6579 54.7827 46.3829 55.4702C46.0529 56.2815 46.1354 56.8865 46.7679 57.354C47.2354 57.7115 48.0604 57.7665 48.9253 57.6977C50.5065 57.5877 51.6203 57.2027 52.1565 56.9552C53.1451 56.6007 54.0795 56.1102 54.9326 55.4977C56.6514 54.2327 57.6964 52.4177 57.6001 50.0252C57.5451 48.7052 57.1189 47.3852 56.5964 46.1477C56.7476 45.9277 56.9126 45.694 57.0639 45.4602C59.785 41.4865 61.8887 37.125 61.8887 37.125C62.0946 38.3249 62.3793 39.51 62.7412 40.6725C63.0712 41.7862 63.7161 43.01 64.3074 44.2062C61.7512 46.2825 60.17 48.6887 59.62 50.27C58.6025 53.1987 59.4 54.5187 60.8987 54.8212C61.5725 54.9587 62.535 54.6425 63.25 54.34C64.3119 53.9863 65.3131 53.4715 66.2186 52.8137C67.9374 51.5487 69.5997 49.775 69.4897 47.3687C69.4485 46.2825 69.146 45.1962 68.7473 44.1512C70.906 43.2437 73.7096 42.7487 77.2846 43.1612C84.9406 44.055 86.4394 48.84 86.1506 50.8337C85.8619 52.8275 84.2531 53.9412 83.7169 54.2712C83.1806 54.6012 83.0156 54.725 83.0569 54.9725C83.1256 55.33 83.3731 55.3162 83.8269 55.2337C84.4594 55.1237 87.8405 53.6112 87.9918 49.9125C88.2118 45.2375 83.7169 40.095 75.7543 40.1362L75.7584 40.139ZM16.7461 60.0352C14.2175 62.799 10.67 63.844 9.14512 62.964C7.50887 62.0125 8.15512 57.9452 11.275 55C13.1725 53.2125 15.6186 51.5625 17.2411 50.545C17.6124 50.325 18.1486 49.995 18.8086 49.5962C18.9186 49.5275 18.9736 49.5 18.9736 49.5C19.0974 49.4175 19.2349 49.3487 19.3724 49.2662C20.5122 53.4462 19.4136 57.1312 16.7461 60.0325V60.0352ZM35.2206 47.4677C34.3406 49.6265 32.4857 55.1265 31.3582 54.8377C30.3957 54.5902 29.8045 50.3965 31.1657 46.2715C31.8532 44.1952 33.3107 41.7202 34.177 40.7577C35.5644 39.204 37.0906 38.709 37.4481 39.3277C37.9294 40.139 35.7706 46.1202 35.2206 47.4677ZM50.4831 54.7552C50.1119 54.9477 49.7681 55.0715 49.6031 54.9752C49.4794 54.9065 49.7544 54.6452 49.7544 54.6452C49.7544 54.6452 51.6656 52.5965 52.4219 51.6615C52.8619 51.1115 53.3706 50.4652 53.9193 49.7502C53.9193 49.819 53.933 49.8877 53.933 49.9702C53.9151 52.4315 51.5515 54.0952 50.479 54.7552H50.4831ZM62.2504 52.074C61.9754 51.8815 62.0166 51.2352 62.9379 49.2277C63.2954 48.444 64.119 47.124 65.5504 45.859C65.7124 46.3378 65.8005 46.8386 65.8116 47.344C65.7979 50.4377 63.5841 51.5927 62.2517 52.074H62.2504Z" fill="white"/>
</svg>
