<svg width="87" height="88" viewBox="0 0 87 88" fill="none" xmlns="http://www.w3.org/2000/svg">
<path d="M28.9712 0V29.3385H57.9429V58.677H86.9142V0H28.9712Z" fill="white"/>
<path d="M57.9718 29.3099H29.1133V58.7057H57.9718V29.3099Z" fill="white"/>
<path d="M28.9717 29.3385H0L28.9717 0V29.3385Z" fill="white"/>
<path d="M57.918 87.9301V58.6204H86.9466L57.918 87.9301Z" fill="white"/>
<path d="M30.9943 26.6785C31.0785 26.6785 31.1467 26.7471 31.1467 26.8317C31.1467 26.9163 31.0785 26.9849 30.9943 26.9849C30.9101 26.9849 30.8418 26.9163 30.8418 26.8317C30.8418 26.7471 30.9101 26.6785 30.9943 26.6785Z" fill="white"/>
<path d="M31.787 26.6785C31.8712 26.6785 31.9394 26.7471 31.9394 26.8317C31.9394 26.9163 31.8712 26.9849 31.787 26.9849C31.7028 26.9849 31.6345 26.9163 31.6345 26.8317C31.6345 26.7471 31.7028 26.6785 31.787 26.6785Z" fill="white"/>
<path d="M32.58 26.6785C32.6642 26.6785 32.7324 26.7471 32.7324 26.8317C32.7324 26.9163 32.6642 26.9849 32.58 26.9849C32.4958 26.9849 32.4275 26.9163 32.4275 26.8317C32.4275 26.7471 32.4958 26.6785 32.58 26.6785Z" fill="white"/>
<path d="M33.3727 26.6785C33.4569 26.6785 33.5252 26.7471 33.5252 26.8317C33.5252 26.9163 33.4569 26.9849 33.3727 26.9849C33.2885 26.9849 33.2202 26.9163 33.2202 26.8317C33.2202 26.7471 33.2885 26.6785 33.3727 26.6785Z" fill="white"/>
<path d="M34.1654 26.6785C34.2496 26.6785 34.3179 26.7471 34.3179 26.8317C34.3179 26.9163 34.2496 26.9849 34.1654 26.9849C34.0812 26.9849 34.0129 26.9163 34.0129 26.8317C34.0129 26.7471 34.0812 26.6785 34.1654 26.6785Z" fill="white"/>
<path d="M34.9584 26.6785C35.0426 26.6785 35.1108 26.7471 35.1108 26.8317C35.1108 26.9163 35.0426 26.9849 34.9584 26.9849C34.8742 26.9849 34.8059 26.9163 34.8059 26.8317C34.8059 26.7471 34.8742 26.6785 34.9584 26.6785Z" fill="white"/>
<path d="M35.7511 26.6785C35.8353 26.6785 35.9036 26.7471 35.9036 26.8317C35.9036 26.9163 35.8353 26.9849 35.7511 26.9849C35.6669 26.9849 35.5986 26.9163 35.5986 26.8317C35.5986 26.7471 35.6669 26.6785 35.7511 26.6785Z" fill="white"/>
<path d="M36.5438 26.6785C36.628 26.6785 36.6963 26.7471 36.6963 26.8317C36.6963 26.9163 36.628 26.9849 36.5438 26.9849C36.4596 26.9849 36.3914 26.9163 36.3914 26.8317C36.3914 26.7471 36.4596 26.6785 36.5438 26.6785Z" fill="white"/>
<path d="M37.3366 26.6785C37.4208 26.6785 37.489 26.7471 37.489 26.8317C37.489 26.9163 37.4208 26.9849 37.3366 26.9849C37.2523 26.9849 37.1841 26.9163 37.1841 26.8317C37.1841 26.7471 37.2523 26.6785 37.3366 26.6785Z" fill="white"/>
<path d="M38.1295 26.6785C38.2137 26.6785 38.282 26.7471 38.282 26.8317C38.282 26.9163 38.2137 26.9849 38.1295 26.9849C38.0453 26.9849 37.9771 26.9163 37.9771 26.8317C37.9771 26.7471 38.0453 26.6785 38.1295 26.6785Z" fill="white"/>
<path d="M38.9225 26.6785C39.0067 26.6785 39.075 26.7471 39.075 26.8317C39.075 26.9163 39.0067 26.9849 38.9225 26.9849C38.8383 26.9849 38.77 26.9163 38.77 26.8317C38.77 26.7471 38.8383 26.6785 38.9225 26.6785Z" fill="white"/>
<path d="M30.9943 25.9434C31.0785 25.9434 31.1467 26.0119 31.1467 26.0965C31.1467 26.1811 31.0785 26.2497 30.9943 26.2497C30.9101 26.2497 30.8418 26.1811 30.8418 26.0965C30.8418 26.0119 30.9101 25.9434 30.9943 25.9434Z" fill="white"/>
<path d="M31.787 25.9434C31.8712 25.9434 31.9394 26.0119 31.9394 26.0965C31.9394 26.1811 31.8712 26.2497 31.787 26.2497C31.7028 26.2497 31.6345 26.1811 31.6345 26.0965C31.6345 26.0119 31.7028 25.9434 31.787 25.9434Z" fill="white"/>
<path d="M32.58 25.9434C32.6642 25.9434 32.7324 26.0119 32.7324 26.0965C32.7324 26.1811 32.6642 26.2497 32.58 26.2497C32.4958 26.2497 32.4275 26.1811 32.4275 26.0965C32.4275 26.0119 32.4958 25.9434 32.58 25.9434Z" fill="white"/>
<path d="M33.3727 25.9434C33.4569 25.9434 33.5252 26.0119 33.5252 26.0965C33.5252 26.1811 33.4569 26.2497 33.3727 26.2497C33.2885 26.2497 33.2202 26.1811 33.2202 26.0965C33.2202 26.0119 33.2885 25.9434 33.3727 25.9434Z" fill="white"/>
<path d="M34.1654 25.9434C34.2496 25.9434 34.3179 26.0119 34.3179 26.0965C34.3179 26.1811 34.2496 26.2497 34.1654 26.2497C34.0812 26.2497 34.0129 26.1811 34.0129 26.0965C34.0129 26.0119 34.0812 25.9434 34.1654 25.9434Z" fill="white"/>
<path d="M34.9584 25.9434C35.0426 25.9434 35.1108 26.0119 35.1108 26.0965C35.1108 26.1811 35.0426 26.2497 34.9584 26.2497C34.8742 26.2497 34.8059 26.1811 34.8059 26.0965C34.8059 26.0119 34.8742 25.9434 34.9584 25.9434Z" fill="white"/>
<path d="M35.7511 25.9434C35.8353 25.9434 35.9036 26.0119 35.9036 26.0965C35.9036 26.1811 35.8353 26.2497 35.7511 26.2497C35.6669 26.2497 35.5986 26.1811 35.5986 26.0965C35.5986 26.0119 35.6669 25.9434 35.7511 25.9434Z" fill="white"/>
<path d="M36.5438 25.9434C36.628 25.9434 36.6963 26.0119 36.6963 26.0965C36.6963 26.1811 36.628 26.2497 36.5438 26.2497C36.4596 26.2497 36.3914 26.1811 36.3914 26.0965C36.3914 26.0119 36.4596 25.9434 36.5438 25.9434Z" fill="white"/>
<path d="M30.9943 25.2081C31.0785 25.2081 31.1467 25.2767 31.1467 25.3613C31.1467 25.4459 31.0785 25.5145 30.9943 25.5145C30.9101 25.5145 30.8418 25.4459 30.8418 25.3613C30.8418 25.2767 30.9101 25.2081 30.9943 25.2081Z" fill="white"/>
<path d="M31.787 25.2081C31.8712 25.2081 31.9394 25.2767 31.9394 25.3613C31.9394 25.4459 31.8712 25.5145 31.787 25.5145C31.7028 25.5145 31.6345 25.4459 31.6345 25.3613C31.6345 25.2767 31.7028 25.2081 31.787 25.2081Z" fill="white"/>
<path d="M32.58 25.2081C32.6642 25.2081 32.7324 25.2767 32.7324 25.3613C32.7324 25.4459 32.6642 25.5145 32.58 25.5145C32.4958 25.5145 32.4275 25.4459 32.4275 25.3613C32.4275 25.2767 32.4958 25.2081 32.58 25.2081Z" fill="white"/>
<path d="M33.3727 25.2081C33.4569 25.2081 33.5252 25.2767 33.5252 25.3613C33.5252 25.4459 33.4569 25.5145 33.3727 25.5145C33.2885 25.5145 33.2202 25.4459 33.2202 25.3613C33.2202 25.2767 33.2885 25.2081 33.3727 25.2081Z" fill="white"/>
<path d="M34.1654 25.2081C34.2496 25.2081 34.3179 25.2767 34.3179 25.3613C34.3179 25.4459 34.2496 25.5145 34.1654 25.5145C34.0812 25.5145 34.0129 25.4459 34.0129 25.3613C34.0129 25.2767 34.0812 25.2081 34.1654 25.2081Z" fill="white"/>
<path d="M30.9943 24.4728C31.0785 24.4728 31.1467 24.5414 31.1467 24.626C31.1467 24.7106 31.0785 24.7792 30.9943 24.7792C30.9101 24.7792 30.8418 24.7106 30.8418 24.626C30.8418 24.5414 30.9101 24.4728 30.9943 24.4728Z" fill="white"/>
<path d="M31.787 24.4729C31.8712 24.4729 31.9394 24.5415 31.9394 24.6261C31.9394 24.7107 31.8712 24.7793 31.787 24.7793C31.7028 24.7793 31.6345 24.7107 31.6345 24.6261C31.6345 24.5415 31.7028 24.4729 31.787 24.4729Z" fill="white"/>
<path d="M32.58 24.4729C32.6642 24.4729 32.7324 24.5415 32.7324 24.6261C32.7324 24.7107 32.6642 24.7793 32.58 24.7793C32.4958 24.7793 32.4275 24.7107 32.4275 24.6261C32.4275 24.5415 32.4958 24.4729 32.58 24.4729Z" fill="white"/>
<path d="M60.7865 54.6242C60.8707 54.6242 60.939 54.5556 60.939 54.471C60.939 54.3864 60.8707 54.3178 60.7865 54.3178C60.7023 54.3178 60.634 54.3864 60.634 54.471C60.634 54.5556 60.7023 54.6242 60.7865 54.6242Z" fill="white"/>
<path d="M61.5792 54.6242C61.6634 54.6242 61.7317 54.5556 61.7317 54.471C61.7317 54.3864 61.6634 54.3178 61.5792 54.3178C61.495 54.3178 61.4268 54.3864 61.4268 54.471C61.4268 54.5556 61.495 54.6242 61.5792 54.6242Z" fill="white"/>
<path d="M62.3722 54.6242C62.4564 54.6242 62.5247 54.5556 62.5247 54.471C62.5247 54.3864 62.4564 54.3178 62.3722 54.3178C62.288 54.3178 62.2197 54.3864 62.2197 54.471C62.2197 54.5556 62.288 54.6242 62.3722 54.6242Z" fill="white"/>
<path d="M63.1649 54.6242C63.2491 54.6242 63.3174 54.5556 63.3174 54.471C63.3174 54.3864 63.2491 54.3178 63.1649 54.3178C63.0807 54.3178 63.0125 54.3864 63.0125 54.471C63.0125 54.5556 63.0807 54.6242 63.1649 54.6242Z" fill="white"/>
<path d="M63.9576 54.6242C64.0419 54.6242 64.1101 54.5556 64.1101 54.471C64.1101 54.3864 64.0419 54.3178 63.9576 54.3178C63.8734 54.3178 63.8052 54.3864 63.8052 54.471C63.8052 54.5556 63.8734 54.6242 63.9576 54.6242Z" fill="white"/>
<path d="M64.7506 54.6242C64.8348 54.6242 64.9031 54.5556 64.9031 54.471C64.9031 54.3864 64.8348 54.3178 64.7506 54.3178C64.6664 54.3178 64.5981 54.3864 64.5981 54.471C64.5981 54.5556 64.6664 54.6242 64.7506 54.6242Z" fill="white"/>
<path d="M65.5433 54.6242C65.6275 54.6242 65.6958 54.5556 65.6958 54.471C65.6958 54.3864 65.6275 54.3178 65.5433 54.3178C65.4591 54.3178 65.3909 54.3864 65.3909 54.471C65.3909 54.5556 65.4591 54.6242 65.5433 54.6242Z" fill="white"/>
<path d="M60.7865 55.3594C60.8707 55.3594 60.939 55.2909 60.939 55.2063C60.939 55.1217 60.8707 55.0531 60.7865 55.0531C60.7023 55.0531 60.634 55.1217 60.634 55.2063C60.634 55.2909 60.7023 55.3594 60.7865 55.3594Z" fill="white"/>
<path d="M61.5792 55.3594C61.6634 55.3594 61.7317 55.2909 61.7317 55.2063C61.7317 55.1217 61.6634 55.0531 61.5792 55.0531C61.495 55.0531 61.4268 55.1217 61.4268 55.2063C61.4268 55.2909 61.495 55.3594 61.5792 55.3594Z" fill="white"/>
<path d="M62.3722 55.3594C62.4564 55.3594 62.5247 55.2909 62.5247 55.2063C62.5247 55.1217 62.4564 55.0531 62.3722 55.0531C62.288 55.0531 62.2197 55.1217 62.2197 55.2063C62.2197 55.2909 62.288 55.3594 62.3722 55.3594Z" fill="white"/>
<path d="M63.1649 55.3594C63.2491 55.3594 63.3174 55.2909 63.3174 55.2063C63.3174 55.1217 63.2491 55.0531 63.1649 55.0531C63.0807 55.0531 63.0125 55.1217 63.0125 55.2063C63.0125 55.2909 63.0807 55.3594 63.1649 55.3594Z" fill="white"/>
<path d="M63.9576 55.3594C64.0419 55.3594 64.1101 55.2909 64.1101 55.2063C64.1101 55.1217 64.0419 55.0531 63.9576 55.0531C63.8734 55.0531 63.8052 55.1217 63.8052 55.2063C63.8052 55.2909 63.8734 55.3594 63.9576 55.3594Z" fill="white"/>
<path d="M64.7506 55.3594C64.8348 55.3594 64.9031 55.2909 64.9031 55.2063C64.9031 55.1217 64.8348 55.0531 64.7506 55.0531C64.6664 55.0531 64.5981 55.1217 64.5981 55.2063C64.5981 55.2909 64.6664 55.3594 64.7506 55.3594Z" fill="white"/>
<path d="M60.7865 56.0946C60.8707 56.0946 60.939 56.0261 60.939 55.9415C60.939 55.8569 60.8707 55.7883 60.7865 55.7883C60.7023 55.7883 60.634 55.8569 60.634 55.9415C60.634 56.0261 60.7023 56.0946 60.7865 56.0946Z" fill="white"/>
<path d="M61.5792 56.0946C61.6634 56.0946 61.7317 56.026 61.7317 55.9414C61.7317 55.8568 61.6634 55.7882 61.5792 55.7882C61.495 55.7882 61.4268 55.8568 61.4268 55.9414C61.4268 56.026 61.495 56.0946 61.5792 56.0946Z" fill="white"/>
<path d="M62.3722 56.0946C62.4564 56.0946 62.5247 56.026 62.5247 55.9414C62.5247 55.8568 62.4564 55.7882 62.3722 55.7882C62.288 55.7882 62.2197 55.8568 62.2197 55.9414C62.2197 56.026 62.288 56.0946 62.3722 56.0946Z" fill="white"/>
<path d="M63.1649 56.0946C63.2491 56.0946 63.3174 56.026 63.3174 55.9414C63.3174 55.8568 63.2491 55.7882 63.1649 55.7882C63.0807 55.7882 63.0125 55.8568 63.0125 55.9414C63.0125 56.026 63.0807 56.0946 63.1649 56.0946Z" fill="white"/>
<path d="M63.9576 56.0946C64.0419 56.0946 64.1101 56.026 64.1101 55.9414C64.1101 55.8568 64.0419 55.7882 63.9576 55.7882C63.8734 55.7882 63.8052 55.8568 63.8052 55.9414C63.8052 56.026 63.8734 56.0946 63.9576 56.0946Z" fill="white"/>
<path d="M60.7865 56.8299C60.8707 56.8299 60.939 56.7614 60.939 56.6768C60.939 56.5922 60.8707 56.5236 60.7865 56.5236C60.7023 56.5236 60.634 56.5922 60.634 56.6768C60.634 56.7614 60.7023 56.8299 60.7865 56.8299Z" fill="white"/>
<path d="M61.5792 56.8298C61.6634 56.8298 61.7317 56.7613 61.7317 56.6767C61.7317 56.5921 61.6634 56.5235 61.5792 56.5235C61.495 56.5235 61.4268 56.5921 61.4268 56.6767C61.4268 56.7613 61.495 56.8298 61.5792 56.8298Z" fill="white"/>
<path d="M62.3722 56.8298C62.4564 56.8298 62.5247 56.7613 62.5247 56.6767C62.5247 56.5921 62.4564 56.5235 62.3722 56.5235C62.288 56.5235 62.2197 56.5921 62.2197 56.6767C62.2197 56.7613 62.288 56.8298 62.3722 56.8298Z" fill="white"/>
</svg>
