<svg width="88" height="60" viewBox="0 0 88 60" fill="none" xmlns="http://www.w3.org/2000/svg">
<g clip-path="url(#clip0_189:52)">
<path d="M76.2135 16.9375V1.01906C76.2135 0.00175645 76.2135 0.00175476 77.2362 0.00175476H86.7591C87.6815 0.00175476 87.6832 0.00175501 87.6832 0.923691C87.6832 16.9757 87.6873 33.0284 87.6956 49.0816C87.6956 51.1727 87.8716 53.2656 87.9754 55.3568C87.9754 55.4751 87.993 55.5934 87.9966 55.71C88.0212 56.4164 87.8962 56.6107 87.2467 56.8827C84.7694 57.9117 82.1928 58.6812 79.5579 59.1787C76.5958 59.7537 73.5835 60.0288 70.5666 60C66.5867 59.9541 62.7617 59.1575 59.2359 57.2766C54.2826 54.6273 51.2391 50.4822 49.9752 45.0159C49.3359 42.3159 49.1462 39.5283 49.4137 36.7661C50.2111 28.859 54.2104 23.0696 61.2214 19.3924C63.6541 18.1173 66.2857 17.4497 69.0017 17.0964C71.2316 16.8022 73.4865 16.7495 75.7276 16.9392C75.8597 16.9481 75.9917 16.9375 76.2135 16.9375ZM76.2135 26.8156C75.3559 26.5621 74.4671 26.4313 73.5731 26.427C70.9855 26.3228 68.5546 26.8668 66.3455 28.2427C64.0431 29.6768 62.3093 31.5984 61.5929 34.2776C61.36 35.2157 61.2051 36.1715 61.1299 37.1353C60.9075 39.3676 61.2133 41.6211 62.0224 43.7125C63.1524 46.6443 65.1908 48.5994 68.2378 49.4896C70.637 50.196 73.0697 50.0865 75.5058 49.8428C76.2223 49.7721 76.2187 49.7192 76.2187 48.9686V26.8156H76.2135Z" fill="white"/>
<path d="M48.2183 58.8979H47.5142C43.6698 58.8979 39.8249 58.8979 35.9793 58.8979C34.5166 58.8979 34.3951 58.822 33.7473 57.5274C30.6229 51.2487 27.2344 45.113 23.8213 38.9827C23.7474 38.8485 23.6541 38.7231 23.5238 38.5235C23.4024 38.7142 23.3038 38.8467 23.2264 38.9915C19.8232 45.3909 16.4248 51.7926 13.031 58.1967C12.7142 58.7972 12.3128 59.0092 11.6739 59.0021C9.68301 58.9827 7.69041 59.0021 5.69957 59.0021H0.0931939C-0.118036 58.6118 0.0685503 58.3486 0.230493 58.0819L3.43238 52.817L15.8087 32.4655C15.8808 32.349 15.9425 32.2236 16.0234 32.1123C16.0851 32.0345 16.1187 31.938 16.1187 31.8386C16.1187 31.7391 16.0851 31.6426 16.0234 31.5648C15.8562 31.2981 15.7013 31.0208 15.5411 30.7488C10.5784 22.3254 5.61743 13.9014 0.658232 5.47686C0.524453 5.24902 0.253374 5.02118 0.410036 4.72977C0.586061 4.41009 0.938111 4.5249 1.21975 4.52313C4.94443 4.52313 8.67029 4.52313 12.3973 4.52313C12.4765 4.52313 12.5557 4.52313 12.6349 4.52313C13.3126 4.47898 13.7298 4.79335 14.0097 5.40621C14.5378 6.57541 15.0658 7.7499 15.6749 8.87671C17.4439 12.1406 19.2658 15.3762 21.0419 18.6365C22.0716 20.5245 23.0556 22.4408 24.0607 24.3447C24.161 24.532 24.2667 24.7174 24.4286 25.0141C24.5729 24.758 24.6768 24.5849 24.7701 24.4066C26.5655 20.9343 28.3469 17.4532 30.1617 13.9862C31.6562 11.1356 33.2193 8.32037 34.6856 5.4539C35.0482 4.74743 35.4513 4.51077 36.2275 4.52136C39.5597 4.56375 42.8918 4.53903 46.224 4.53903C46.3613 4.53903 46.5003 4.53903 46.6376 4.53903C47.2801 4.55845 47.4104 4.79159 47.0812 5.33557L41.0717 15.272C38.0418 20.2996 35.0053 25.3185 31.9625 30.3285C31.6667 30.8124 31.7072 31.1409 31.9853 31.5984C37.3118 40.3326 42.629 49.0722 47.9367 57.817C48.118 58.1155 48.3644 58.3998 48.2183 58.8979Z" fill="white"/>
</g>
<defs>
<clipPath id="clip0_189:52">
<rect width="88" height="60" fill="white"/>
</clipPath>
</defs>
</svg>
